<svg width="24" height="24" viewBox="0 0 24 24" fill="none" xmlns="http://www.w3.org/2000/svg">
<path d="M20.252 19C20.252 18.6685 20.1202 18.3506 19.8857 18.1162C19.6513 17.8818 19.3335 17.75 19.002 17.75C18.6704 17.75 18.3526 17.8818 18.1182 18.1162C17.8837 18.3506 17.752 18.6685 17.752 19C17.752 19.3315 17.8837 19.6494 18.1182 19.8838C18.3526 20.1182 18.6704 20.25 19.002 20.25C19.3335 20.25 19.6513 20.1182 19.8857 19.8838C20.1202 19.6494 20.252 19.3315 20.252 19ZM5.25 21V19C5.25 17.7402 5.7508 16.5324 6.6416 15.6416C7.5324 14.7508 8.74022 14.25 10 14.25H12.5C12.9142 14.25 13.25 14.5858 13.25 15C13.25 15.4142 12.9142 15.75 12.5 15.75H10C9.13805 15.75 8.31164 16.0927 7.70215 16.7021C7.09266 17.3116 6.75 18.138 6.75 19V21C6.75 21.4142 6.41421 21.75 6 21.75C5.58579 21.75 5.25 21.4142 5.25 21ZM15.25 7C15.25 6.13805 14.9073 5.31164 14.2979 4.70215C13.6884 4.09266 12.862 3.75 12 3.75C11.138 3.75 10.3116 4.09266 9.70215 4.70215C9.09266 5.31164 8.75 6.13805 8.75 7C8.75 7.86195 9.09266 8.68836 9.70215 9.29785C10.3116 9.90734 11.138 10.25 12 10.25C12.862 10.25 13.6884 9.90734 14.2979 9.29785C14.9073 8.68836 15.25 7.86195 15.25 7ZM21.752 19C21.752 19.2288 21.7191 19.4537 21.6641 19.6719L22.4072 20.1006C22.7659 20.3076 22.8886 20.7663 22.6816 21.125C22.4746 21.4835 22.0159 21.6063 21.6572 21.3994L20.916 20.9717C20.5868 21.2913 20.1863 21.5193 19.752 21.6426V22.5C19.752 22.9142 19.4162 23.25 19.002 23.25C18.5877 23.25 18.252 22.9142 18.252 22.5V21.6426C17.8171 21.5192 17.4163 21.2908 17.0869 20.9707L16.3457 21.3994C15.987 21.6064 15.5284 21.4836 15.3213 21.125C15.1143 20.7663 15.2371 20.3076 15.5957 20.1006L16.3389 19.6709C16.284 19.453 16.252 19.2284 16.252 19C16.252 18.7712 16.2838 18.5463 16.3389 18.3281L15.5957 17.8994C15.2371 17.6924 15.1143 17.2337 15.3213 16.875C15.5284 16.5164 15.987 16.3936 16.3457 16.6006L17.0869 17.0283C17.4163 16.7084 17.8173 16.4798 18.252 16.3564V15.5C18.252 15.0858 18.5877 14.75 19.002 14.75C19.4162 14.75 19.752 15.0858 19.752 15.5V16.3564C20.186 16.4796 20.5859 16.7082 20.915 17.0273L21.6562 16.6006C22.0149 16.3935 22.4735 16.5164 22.6807 16.875C22.8878 17.2337 22.765 17.6923 22.4062 17.8994L21.6641 18.3271C21.7193 18.5456 21.752 18.7708 21.752 19ZM16.75 7C16.75 8.25978 16.2492 9.4676 15.3584 10.3584C14.4676 11.2492 13.2598 11.75 12 11.75C10.7402 11.75 9.5324 11.2492 8.6416 10.3584C7.7508 9.4676 7.25 8.25978 7.25 7C7.25 5.74022 7.7508 4.5324 8.6416 3.6416C9.5324 2.7508 10.7402 2.25 12 2.25C13.2598 2.25 14.4676 2.7508 15.3584 3.6416C16.2492 4.5324 16.75 5.74022 16.75 7Z" fill="black"/>
</svg>
