<svg width="24" height="24" viewBox="0 0 24 24" fill="none" xmlns="http://www.w3.org/2000/svg">
<path d="M18.25 22V19.75H16C15.5858 19.75 15.25 19.4142 15.25 19C15.25 18.5858 15.5858 18.25 16 18.25H18.25V16C18.25 15.5858 18.5858 15.25 19 15.25C19.4142 15.25 19.75 15.5858 19.75 16V18.25H22C22.4142 18.25 22.75 18.5858 22.75 19C22.75 19.4142 22.4142 19.75 22 19.75H19.75V22C19.75 22.4142 19.4142 22.75 19 22.75C18.5858 22.75 18.25 22.4142 18.25 22ZM14 12.25C14.4142 12.25 14.75 12.5858 14.75 13C14.75 13.4142 14.4142 13.75 14 13.75H8C7.58579 13.75 7.25 13.4142 7.25 13C7.25 12.5858 7.58579 12.25 8 12.25H14ZM20.25 12.5V7C20.25 6.40326 20.0128 5.83114 19.5908 5.40918C19.1689 4.98722 18.5967 4.75 18 4.75H6C5.40326 4.75 4.83114 4.98722 4.40918 5.40918C3.98722 5.83114 3.75 6.40326 3.75 7V15C3.75 15.5967 3.98722 16.1689 4.40918 16.5908C4.83114 17.0128 5.40326 17.25 6 17.25H9C9.19891 17.25 9.38962 17.3291 9.53027 17.4697L12.001 19.9404C12.2955 19.6773 12.7475 19.687 13.0303 19.9697C13.3232 20.2626 13.3232 20.7374 13.0303 21.0303L12.5303 21.5303C12.2374 21.8232 11.7626 21.8232 11.4697 21.5303L8.68945 18.75H6C5.00544 18.75 4.05189 18.3546 3.34863 17.6514C2.64537 16.9481 2.25 15.9946 2.25 15V7C2.25 6.00544 2.64537 5.05189 3.34863 4.34863C4.05189 3.64537 5.00544 3.25 6 3.25H18C18.9946 3.25 19.9481 3.64537 20.6514 4.34863C21.3546 5.05189 21.75 6.00544 21.75 7V12.5C21.75 12.9142 21.4142 13.25 21 13.25C20.5858 13.25 20.25 12.9142 20.25 12.5ZM16 8.25C16.4142 8.25 16.75 8.58579 16.75 9C16.75 9.41421 16.4142 9.75 16 9.75H8C7.58579 9.75 7.25 9.41421 7.25 9C7.25 8.58579 7.58579 8.25 8 8.25H16Z" fill="black"/>
</svg>
