<svg width="24" height="24" viewBox="0 0 24 24" fill="none" xmlns="http://www.w3.org/2000/svg">
<path d="M4.25 10C4.25 9.58579 4.58579 9.25 5 9.25C5.41421 9.25 5.75 9.58579 5.75 10C5.75 11.6576 6.40895 13.2468 7.58105 14.4189C8.75316 15.591 10.3424 16.25 12 16.25C13.6576 16.25 15.2468 15.591 16.4189 14.4189C17.591 13.2468 18.25 11.6576 18.25 10C18.25 9.58579 18.5858 9.25 19 9.25C19.4142 9.25 19.75 9.58579 19.75 10C19.75 12.0554 18.9339 14.0271 17.4805 15.4805C16.2049 16.756 14.5301 17.5399 12.75 17.7129V20.25H16C16.4142 20.25 16.75 20.5858 16.75 21C16.75 21.4142 16.4142 21.75 16 21.75H8C7.58579 21.75 7.25 21.4142 7.25 21C7.25 20.5858 7.58579 20.25 8 20.25H11.25V17.7129C9.46991 17.5399 7.79507 16.756 6.51953 15.4805C5.06612 14.0271 4.25 12.0554 4.25 10ZM14.25 5C14.25 4.40326 14.0128 3.83114 13.5908 3.40918C13.1689 2.98722 12.5967 2.75 12 2.75C11.4033 2.75 10.8311 2.98722 10.4092 3.40918C9.98722 3.83114 9.75 4.40326 9.75 5V10C9.75 10.5967 9.98722 11.1689 10.4092 11.5908C10.8311 12.0128 11.4033 12.25 12 12.25C12.5967 12.25 13.1689 12.0128 13.5908 11.5908C14.0128 11.1689 14.25 10.5967 14.25 10V5ZM15.75 10C15.75 10.9946 15.3546 11.9481 14.6514 12.6514C13.9481 13.3546 12.9946 13.75 12 13.75C11.0054 13.75 10.0519 13.3546 9.34863 12.6514C8.64537 11.9481 8.25 10.9946 8.25 10V5C8.25 4.00544 8.64537 3.05189 9.34863 2.34863C10.0519 1.64537 11.0054 1.25 12 1.25C12.9946 1.25 13.9481 1.64537 14.6514 2.34863C15.3546 3.05189 15.75 4.00544 15.75 5V10Z" fill="black"/>
</svg>
